/* XPM */
static const char * quiet_xpm[] = {
"32 32 2 1",
" 	c None",
".	c #797979",
"                                ",
"                                ",
"               ....             ",
"             ......             ",
"           ........             ",
"        ...........             ",
"      .............             ",
"    ...............             ",
"  .................             ",
"    ...............             ",
"      .............             ",
"        ...........             ",
"           ........             ",
"             ......             ",
"               ....             ",
"                ...             ",
"                ...             ",
"                ...             ",
"                ...             ",
"                ...             ",
"                ...             ",
"                ...             ",
"                ...             ",
"                ...             ",
"                ...             ",
"                ...             ",
"                ...             ",
"                ...             ",
"                ...             ",
"                ...             ",
"                                ",
"                                "};
